<svg xmlns="http://www.w3.org/2000/svg" viewBox="0 0 640 480">
  <path fill="#012169" d="M0 0h640v480H0z"/>
  <path fill="#FFF" d="m75 0 244 181L562 0h78v62L400 241l240 178v61h-80L320 301 81 480H0v-60l239-178L0 64V0h75z"/>
  <path fill="#C8102E" d="m424 281 216 159v40L369 281h55zM201 281 0 480v40l215-159h-14zm452-123 208-152v-40L437 158h216zM0 158l208-152V0L0 158z"/>
  <path fill="#FFF" d="M241 0v480h160V0H241zM0 160v160h640V160H0z"/>
  <path fill="#C8102E" d="M0 193v96h640v-96H0zM273 0v480h96V0h-96z"/>
</svg>






