<svg width="24" height="24" viewBox="0 0 24 24" fill="none" xmlns="http://www.w3.org/2000/svg">
<path d="M6.82411 12.8985C6.65954 12.7835 6.53568 12.6516 6.45251 12.503C6.37023 12.3552 6.32909 12.1876 6.32909 12C6.32909 11.8124 6.37023 11.6448 6.45251 11.497C6.53479 11.3493 6.65866 11.2174 6.82411 11.1015L14.5786 6.14731C14.6679 6.09865 14.7622 6.06193 14.8613 6.03716C14.9604 6.01239 15.0546 6 15.144 6C15.4324 6 15.6837 6.09732 15.8978 6.29197C16.1119 6.48662 16.2189 6.74674 16.2189 7.07233V16.9277C16.2189 17.2533 16.1114 17.5134 15.8964 17.708C15.6806 17.9027 15.4288 18 15.1413 18C15.0519 18 14.9582 17.9876 14.8599 17.9628C14.7617 17.939 14.6679 17.9022 14.5786 17.8527L6.82411 12.8985Z" fill="black"/>
</svg>
